<?xml version="1.0" encoding="UTF-8" standalone="no"?>
<!DOCTYPE svg PUBLIC "-//W3C//DTD SVG 1.1//EN"
 "http://www.w3.org/Graphics/SVG/1.1/DTD/svg11.dtd">
<!-- Generated by graphviz version 2.40.1 (20161225.0304)
 -->
<!-- Title: dependency&#45;cruiser output Pages: 1 -->
<svg width="200pt" height="134pt"
 viewBox="0.00 0.00 200.02 134.00" xmlns="http://www.w3.org/2000/svg" xmlns:xlink="http://www.w3.org/1999/xlink">
<g id="graph0" class="graph" transform="scale(1 1) rotate(0) translate(4 130)">
<title>dependency&#45;cruiser output</title>
<polygon fill="#ffffff" stroke="transparent" points="-4,4 -4,-130 196.0151,-130 196.0151,4 -4,4"/>
<g id="clust1" class="cluster">
<title>cluster_/src</title>
<path fill="none" stroke="#000000" stroke-width="2" d="M20,-8C20,-8 172.0151,-8 172.0151,-8 178.0151,-8 184.0151,-14 184.0151,-20 184.0151,-20 184.0151,-106 184.0151,-106 184.0151,-112 178.0151,-118 172.0151,-118 172.0151,-118 20,-118 20,-118 14,-118 8,-112 8,-106 8,-106 8,-20 8,-20 8,-14 14,-8 20,-8"/>
<text text-anchor="middle" x="96.0076" y="-106.8" font-family="Helvetica,sans-Serif" font-weight="bold" font-size="9.00" fill="#000000">src</text>
</g>
<g id="clust2" class="cluster">
<title>cluster_/src/__tests__</title>
<path fill="none" stroke="#000000" stroke-width="2" d="M28,-42C28,-42 82.0151,-42 82.0151,-42 88.0151,-42 94.0151,-48 94.0151,-54 94.0151,-54 94.0151,-81 94.0151,-81 94.0151,-87 88.0151,-93 82.0151,-93 82.0151,-93 28,-93 28,-93 22,-93 16,-87 16,-81 16,-81 16,-54 16,-54 16,-48 22,-42 28,-42"/>
<text text-anchor="middle" x="55.0076" y="-81.8" font-family="Helvetica,sans-Serif" font-weight="bold" font-size="9.00" fill="#000000">__tests__</text>
</g>
<!-- src/__tests__/main.test.ts -->
<g id="node1" class="node">
<title>src/__tests__/main.test.ts</title>
<g id="a_node1"><a xlink:href="src/__tests__/main.test.ts" xlink:title="main.test.ts">
<path fill="#ffffcc" stroke="#000000" d="M80.356,-67.5C80.356,-67.5 29.6591,-67.5 29.6591,-67.5 26.8258,-67.5 23.9924,-64.6667 23.9924,-61.8333 23.9924,-61.8333 23.9924,-56.1667 23.9924,-56.1667 23.9924,-53.3333 26.8258,-50.5 29.6591,-50.5 29.6591,-50.5 80.356,-50.5 80.356,-50.5 83.1894,-50.5 86.0227,-53.3333 86.0227,-56.1667 86.0227,-56.1667 86.0227,-61.8333 86.0227,-61.8333 86.0227,-64.6667 83.1894,-67.5 80.356,-67.5"/>
<text text-anchor="middle" x="55.0076" y="-56.3" font-family="Helvetica,sans-Serif" font-size="9.00" fill="#000000">main.test.ts</text>
</a>
</g>
</g>
<!-- src/main.ts -->
<g id="node3" class="node">
<title>src/main.ts</title>
<g id="a_node3"><a xlink:href="src/main.ts" xlink:title="main.ts">
<path fill="#ffffcc" stroke="#000000" d="M170.3485,-50.5C170.3485,-50.5 127.6818,-50.5 127.6818,-50.5 124.8485,-50.5 122.0151,-47.6667 122.0151,-44.8333 122.0151,-44.8333 122.0151,-39.1667 122.0151,-39.1667 122.0151,-36.3333 124.8485,-33.5 127.6818,-33.5 127.6818,-33.5 170.3485,-33.5 170.3485,-33.5 173.1818,-33.5 176.0151,-36.3333 176.0151,-39.1667 176.0151,-39.1667 176.0151,-44.8333 176.0151,-44.8333 176.0151,-47.6667 173.1818,-50.5 170.3485,-50.5"/>
<text text-anchor="middle" x="149.0151" y="-39.3" font-family="Helvetica,sans-Serif" font-size="9.00" fill="#000000">main.ts</text>
</a>
</g>
</g>
<!-- src/__tests__/main.test.ts&#45;&gt;src/main.ts -->
<g id="edge1" class="edge">
<title>src/__tests__/main.test.ts&#45;&gt;src/main.ts</title>
<path fill="none" stroke="#000000" d="M86.0497,-53.3865C94.2624,-51.9013 103.2128,-50.2827 111.7196,-48.7444"/>
<polygon fill="#000000" stroke="#000000" points="112.5791,-52.1458 121.7966,-46.9221 111.3334,-45.2575 112.5791,-52.1458"/>
</g>
<!-- src/cli.ts -->
<g id="node2" class="node">
<title>src/cli.ts</title>
<g id="a_node2"><a xlink:href="src/cli.ts" xlink:title="cli.ts">
<path fill="#ffffcc" stroke="#000000" d="M76.3409,-33.5C76.3409,-33.5 33.6742,-33.5 33.6742,-33.5 30.8409,-33.5 28.0076,-30.6667 28.0076,-27.8333 28.0076,-27.8333 28.0076,-22.1667 28.0076,-22.1667 28.0076,-19.3333 30.8409,-16.5 33.6742,-16.5 33.6742,-16.5 76.3409,-16.5 76.3409,-16.5 79.1742,-16.5 82.0076,-19.3333 82.0076,-22.1667 82.0076,-22.1667 82.0076,-27.8333 82.0076,-27.8333 82.0076,-30.6667 79.1742,-33.5 76.3409,-33.5"/>
<text text-anchor="middle" x="55.0076" y="-22.3" font-family="Helvetica,sans-Serif" font-size="9.00" fill="#000000">cli.ts</text>
</a>
</g>
</g>
<!-- src/cli.ts&#45;&gt;src/main.ts -->
<g id="edge2" class="edge">
<title>src/cli.ts&#45;&gt;src/main.ts</title>
<path fill="none" stroke="#000000" d="M82.1985,-29.9171C91.4551,-31.591 101.9666,-33.4919 111.8672,-35.2823"/>
<polygon fill="#000000" stroke="#000000" points="111.4221,-38.7585 121.8854,-37.0939 112.6678,-31.8702 111.4221,-38.7585"/>
</g>
</g>
</svg>
